<svg xmlns="http://www.w3.org/2000/svg" viewBox="0 0 512 512"><!--! Font Awesome Pro 6.5.2 by @fontawesome - https://fontawesome.com License - https://fontawesome.com/license (Commercial License) Copyright 2024 Fonticons, Inc. --><path class="fa-secondary" style="fill:var(--fa-secondary-color,inherit);opacity:var(--fa-secondary-opacity,.4);" d="M0 256a256 256 0 1 0 512 0A256 256 0 1 0 0 256zm112-56c0-39.8 32.2-72 72-72s72 32.2 72 72c0 13.3-10.7 24-24 24s-24-10.7-24-24s-10.7-24-24-24s-24 10.7-24 24l0 112c0 13.3 10.7 24 24 24s24-10.7 24-24l0-8c-13.3 0-24-10.7-24-24s10.7-24 24-24l24 0c13.3 0 24 10.7 24 24l0 32c0 39.8-32.2 72-72 72s-72-32.2-72-72l0-112zm176-48c0-13.3 10.7-24 24-24l64 0c13.3 0 24 10.7 24 24s-10.7 24-24 24l-40 0 0 64 24 0c13.3 0 24 10.7 24 24s-10.7 24-24 24l-24 0 0 72c0 13.3-10.7 24-24 24s-24-10.7-24-24l0-96 0-112z"/><path class="fa-primary" style="fill:var(--fa-primary-color,inherit);opacity:var(--fa-primary-opacity,1);" d="M112 200c0-39.8 32.2-72 72-72s72 32.2 72 72c0 13.3-10.7 24-24 24s-24-10.7-24-24s-10.7-24-24-24s-24 10.7-24 24l0 112c0 13.3 10.7 24 24 24s24-10.7 24-24l0-8c-13.3 0-24-10.7-24-24s10.7-24 24-24l24 0c13.3 0 24 10.7 24 24l0 32c0 39.8-32.2 72-72 72s-72-32.2-72-72l0-112zm176-48c0-13.3 10.7-24 24-24l64 0c13.3 0 24 10.7 24 24s-10.7 24-24 24l-40 0 0 64 24 0c13.3 0 24 10.7 24 24s-10.7 24-24 24l-24 0 0 72c0 13.3-10.7 24-24 24s-24-10.7-24-24l0-96 0-112z"/></svg>