<svg xmlns="http://www.w3.org/2000/svg" viewBox="0 0 512 512"><!--! Font Awesome Pro 6.5.2 by @fontawesome - https://fontawesome.com License - https://fontawesome.com/license (Commercial License) Copyright 2024 Fonticons, Inc. --><path class="fa-secondary" style="fill:var(--fa-secondary-color,inherit);opacity:var(--fa-secondary-opacity,.4);" d="M0 208a208 208 0 1 1 416 0A208 208 0 1 1 0 208zm161.8-77.9c-5 2.9-8 8.1-8 13.9V272c0 5.7 3.1 11 8 13.9s11.1 2.8 16 0l110.2-64c4.9-2.9 8-8.1 8-13.8s-3-11-8-13.8l-110.2-64c-4.9-2.9-11.1-2.9-16 0z"/><path class="fa-primary" style="fill:var(--fa-primary-color,inherit);opacity:var(--fa-primary-opacity,1);" d="M161.8 130.1c-5 2.9-8 8.1-8 13.9V272c0 5.7 3.1 11 8 13.9s11.1 2.8 16 0l110.2-64c4.9-2.9 8-8.1 8-13.8s-3-11-8-13.8l-110.2-64c-4.9-2.9-11.1-2.9-16 0zM330.7 376L457.4 502.6c12.5 12.5 32.8 12.5 45.3 0s12.5-32.8 0-45.3L376 330.7C363.3 348 348 363.3 330.7 376z"/></svg>