<svg xmlns="http://www.w3.org/2000/svg" viewBox="0 0 512 512"><!--! Font Awesome Pro 6.5.2 by @fontawesome - https://fontawesome.com License - https://fontawesome.com/license (Commercial License) Copyright 2024 Fonticons, Inc. --><path class="fa-secondary" style="fill:var(--fa-secondary-color,inherit);opacity:var(--fa-secondary-opacity,.4);" d="M512 304c0-70.7-57.3-128-128-128l-192 0 0 96 192 0c17.7 0 32 14.3 32 32l0 144c0 17.7 14.3 32 32 32l32 0c17.7 0 32-14.3 32-32l0-144z"/><path class="fa-primary" style="fill:var(--fa-primary-color,inherit);opacity:var(--fa-primary-opacity,1);" d="M151.5 70.6c7-6.6 17.2-8.4 26-4.6s14.5 12.5 14.5 22l0 272c0 9.6-5.7 18.2-14.5 22s-19 2-26-4.6l-144-136C2.7 236.9 0 230.6 0 224s2.7-12.9 7.5-17.4l144-136z"/></svg>